<svg xmlns="http://www.w3.org/2000/svg" viewBox="0 0 512 512" role="img" aria-label="Vedic astrology architect portrait">
  <defs>
    <radialGradient id="bg" cx="50%" cy="42%" r="70%">
      <stop offset="0" stop-color="#46306f"/>
      <stop offset="0.45" stop-color="#17182b"/>
      <stop offset="1" stop-color="#090a12"/>
    </radialGradient>
    <linearGradient id="gold" x1="0" y1="0" x2="1" y2="1">
      <stop offset="0" stop-color="#f3d18a"/>
      <stop offset="0.52" stop-color="#d59b3b"/>
      <stop offset="1" stop-color="#8b5d1d"/>
    </linearGradient>
    <linearGradient id="robe" x1="0" y1="0" x2="1" y2="1">
      <stop offset="0" stop-color="#201c3d"/>
      <stop offset="1" stop-color="#5c2d5f"/>
    </linearGradient>
    <filter id="glow" x="-30%" y="-30%" width="160%" height="160%">
      <feGaussianBlur stdDeviation="5" result="blur"/>
      <feMerge>
        <feMergeNode in="blur"/>
        <feMergeNode in="SourceGraphic"/>
      </feMerge>
    </filter>
  </defs>

  <rect width="512" height="512" rx="42" fill="url(#bg)"/>
  <circle cx="256" cy="247" r="176" fill="none" stroke="#d7a84c" stroke-width="2" opacity="0.38"/>
  <circle cx="256" cy="247" r="124" fill="none" stroke="#f1c979" stroke-width="1.5" opacity="0.36"/>
  <circle cx="256" cy="247" r="76" fill="none" stroke="#f1c979" stroke-width="1" opacity="0.3"/>
  <g stroke="#d7a84c" stroke-width="1.3" opacity="0.34">
    <path d="M256 71v352M80 247h352M132 123l248 248M380 123 132 371"/>
    <path d="M188 86 324 408M324 86 188 408M97 179l318 136M415 179 97 315"/>
  </g>

  <g filter="url(#glow)" opacity="0.86">
    <circle cx="256" cy="94" r="6" fill="url(#gold)"/>
    <circle cx="393" cy="247" r="5" fill="url(#gold)"/>
    <circle cx="256" cy="400" r="6" fill="url(#gold)"/>
    <circle cx="119" cy="247" r="5" fill="url(#gold)"/>
    <circle cx="353" cy="150" r="4" fill="url(#gold)"/>
    <circle cx="159" cy="344" r="4" fill="url(#gold)"/>
  </g>

  <path d="M139 462c18-78 63-122 117-122s99 44 117 122H139z" fill="url(#robe)"/>
  <path d="M176 462c13-47 44-74 80-74s67 27 80 74H176z" fill="#101325" opacity="0.78"/>
  <circle cx="256" cy="244" r="76" fill="#2c2440"/>
  <path d="M181 252c22-50 48-75 75-75s53 25 75 75c-21 34-46 51-75 51s-54-17-75-51z" fill="#c18b49"/>
  <path d="M209 255c13-26 29-39 47-39s34 13 47 39c-14 18-29 27-47 27s-33-9-47-27z" fill="#191628"/>
  <circle cx="256" cy="254" r="15" fill="url(#gold)"/>
  <path d="M256 177v151M196 221h120M217 195l78 118M295 195l-78 118" fill="none" stroke="#f6d99a" stroke-width="3" stroke-linecap="round" opacity="0.78"/>

  <g fill="none" stroke="#f1c979" stroke-width="2" opacity="0.7">
    <path d="M214 136h84M205 154h102M196 172h120"/>
    <path d="M213 356h86M201 376h110"/>
  </g>
</svg>
